<?xml version="1.0" standalone="no"?>
<!DOCTYPE svg PUBLIC "-//W3C//DTD SVG 20010904//EN"
 "http://www.w3.org/TR/2001/REC-SVG-20010904/DTD/svg10.dtd">
<svg version="1.0" xmlns="http://www.w3.org/2000/svg"
 width="16.000000pt" height="16.000000pt" viewBox="0 0 16.000000 16.000000"
 preserveAspectRatio="xMidYMid meet">
<metadata>
Created by potrace 1.11, written by Peter Selinger 2001-2013
</metadata>
<g transform="translate(0.000000,16.000000) scale(0.003810,-0.003810)"
fill="#000000" stroke="none">
<path d="M1767 3981 c-27 -11 -64 -32 -83 -46 -32 -25 -88 -92 -96 -116 -2 -6
-29 -3 -68 7 -152 39 -294 -12 -344 -123 l-17 -38 -77 -1 c-231 -2 -372 -133
-389 -363 l-6 -73 -73 7 -74 7 -11 -29 c-11 -28 -7 -143 5 -173 5 -12 -4 -19
-38 -28 -55 -14 -101 -52 -128 -105 -27 -55 -34 -149 -15 -205 14 -41 14 -46
-8 -95 -34 -76 -49 -199 -36 -307 11 -91 41 -192 65 -219 7 -9 16 -45 19 -81
29 -335 78 -545 179 -760 209 -446 627 -787 1105 -901 58 -14 99 -31 140 -59
139 -95 326 -90 465 13 19 14 79 35 143 52 278 70 523 206 728 404 148 143
251 282 337 456 108 218 157 393 179 640 6 70 19 145 32 180 11 32 19 73 16
89 -2 18 5 50 20 82 51 113 50 235 -4 356 l-25 57 21 66 c23 71 18 95 -20 95
-10 0 -33 13 -51 29 -32 29 -32 29 -30 117 3 83 1 93 -31 160 -39 79 -113 160
-176 191 -45 22 -43 27 17 57 17 9 32 21 32 26 0 5 -13 25 -30 43 -32 36 -100
71 -163 82 -32 6 -41 14 -58 51 -33 70 -93 130 -167 166 -61 30 -74 33 -163
33 -93 0 -97 1 -132 32 -20 18 -56 37 -79 44 -39 10 -123 7 -173 -6 -16 -5
-23 2 -36 34 -22 51 -111 113 -166 115 -37 1 -38 0 -41 -35 -3 -40 -51 -96
-59 -71 -15 40 -75 100 -127 127 -52 26 -70 30 -160 32 -81 3 -110 -1 -149
-16z m778 -846 c142 -16 154 -19 215 -55 109 -64 190 -128 290 -230 l95 -97
38 -114 c41 -121 150 -355 222 -479 38 -65 45 -87 55 -165 13 -106 1 -324 -25
-450 -80 -394 -318 -710 -649 -866 -91 -42 -237 -93 -302 -103 l-41 -7 -7 62
c-3 34 -6 79 -6 99 0 36 2 38 58 61 192 78 467 352 479 478 6 71 -6 74 -187
42 -493 -88 -1056 -87 -1535 3 -66 13 -126 21 -133 18 -22 -8 -31 -37 -22 -75
6 -27 4 -39 -6 -48 -8 -6 -14 -7 -14 -3 0 5 -9 15 -21 22 -12 8 -18 9 -14 3 3
-6 2 -11 -3 -11 -6 0 -13 7 -16 16 -5 13 -9 14 -21 4 -12 -10 -15 -10 -15 0 0
8 -3 11 -6 7 -3 -3 -3 -11 1 -17 5 -8 11 -8 21 1 10 8 14 8 14 0 0 -6 -5 -11
-10 -11 -6 0 -9 -3 -8 -7 2 -5 -1 -8 -7 -8 -5 0 -9 3 -7 8 4 12 -16 8 -22 -5
-3 -7 -3 -3 -1 9 6 24 -9 40 -21 22 -4 -8 -3 -9 4 -5 7 4 12 2 12 -3 0 -6 -5
-11 -11 -11 -5 0 -8 -4 -4 -9 3 -5 1 -12 -4 -15 -5 -4 -13 -1 -17 5 -5 8 -3 9
6 4 9 -5 11 -4 6 3 -10 17 -26 15 -26 -3 0 -9 7 -18 15 -21 8 -4 13 -10 10
-14 -3 -5 9 -19 27 -31 62 -44 168 -29 168 24 0 16 9 8 37 -33 84 -125 269
-275 418 -339 61 -26 70 -33 69 -55 0 -14 -1 -58 -2 -97 l-2 -71 -42 7 c-66
11 -212 61 -303 104 -333 156 -569 471 -650 866 -26 127 -38 343 -25 454 11
91 15 103 80 221 93 169 203 400 231 485 21 64 31 78 120 166 106 106 284 232
340 242 28 5 161 20 374 41 103 10 639 -3 780 -19z m-1491 -1936 c-3 -5 -10
-7 -15 -3 -5 3 -7 10 -3 15 3 5 10 7 15 3 5 -3 7 -10 3 -15z m54 -13 c-2 -19
-5 -22 -15 -14 -16 13 -17 22 -1 12 8 -5 9 -2 5 9 -3 10 -2 17 3 17 5 0 9 -11
8 -24z"/>
<path d="M1123 2736 c-94 -31 -202 -121 -206 -172 -2 -34 1 -34 98 0 149 54
253 23 426 -126 37 -31 84 -80 105 -107 33 -42 44 -50 72 -51 45 0 87 23 116
67 23 34 24 38 10 65 -23 45 -181 199 -252 245 -34 23 -88 52 -120 64 -71 27
-190 34 -249 15z"/>
<path d="M2751 2725 c-124 -28 -284 -122 -390 -229 l-54 -55 18 -41 c21 -46
58 -77 104 -86 28 -6 38 -1 84 43 68 64 160 126 252 170 62 29 85 35 142 35
75 -1 137 -19 196 -58 40 -26 67 -26 67 1 0 30 -29 72 -89 128 -95 88 -207
119 -330 92z"/>
<path d="M942 2153 l3 -38 259 -153 258 -154 -52 -37 c-155 -106 -175 -125
-172 -156 2 -17 7 -33 10 -37 4 -4 116 43 249 104 l242 111 -2 35 -2 35 -380
163 c-209 90 -388 163 -398 164 -15 0 -18 -7 -15 -37z"/>
<path d="M2725 2026 l-380 -163 -2 -35 -2 -35 242 -111 c133 -61 245 -108 249
-104 3 4 8 20 10 37 3 31 -17 50 -172 156 l-52 37 258 154 259 153 3 38 c3 30
0 37 -15 37 -10 -1 -189 -74 -398 -164z"/>
<path d="M3041 1248 c-22 -21 -23 -22 -17 -3 6 15 4 17 -5 8 -16 -16 -2 -38
16 -23 7 6 15 7 17 3 3 -4 4 -3 2 3 -1 6 3 17 9 23 21 21 1 11 -22 -11z"/>
<path d="M3076 1254 c-3 -9 -4 -19 -2 -22 2 -4 -2 -13 -10 -20 -10 -9 -14 -9
-14 -1 0 6 -7 9 -15 5 -8 -3 -21 1 -29 9 -13 13 -15 13 -21 -5 -3 -11 -4 -24
0 -29 3 -5 0 -13 -6 -17 -8 -4 -9 -3 -5 4 4 7 2 12 -3 12 -6 0 -11 -9 -11 -21
0 -11 4 -17 10 -14 6 3 7 -1 4 -9 -4 -11 2 -19 17 -25 41 -15 139 -1 139 20 0
5 7 9 16 9 9 0 14 6 11 13 -3 8 -1 20 5 28 7 11 8 9 3 -6 -4 -14 -3 -17 5 -9
6 6 8 18 4 28 -6 15 -7 16 -19 0 -9 -14 -14 -14 -20 -4 -5 8 -4 11 1 7 6 -3
10 7 9 23 0 15 -4 26 -8 23 -5 -3 -6 -10 -4 -17 3 -6 -2 -17 -9 -24 -8 -7 -14
-8 -14 -2 0 5 -4 10 -10 10 -5 0 -9 -4 -7 -9 2 -8 -3 -11 -20 -11 -3 0 2 9 12
20 14 16 21 18 28 8 6 -10 7 -9 4 3 -3 9 -1 21 4 26 6 6 4 10 -5 10 -8 0 -13
-4 -11 -8 3 -3 -3 -13 -12 -20 -14 -12 -15 -11 -9 9 8 25 1 30 -8 6z m-36 -50
c0 -8 -19 -13 -24 -6 -3 5 1 9 9 9 8 0 15 -2 15 -3z"/>
<path d="M915 1249 c-4 -6 -5 -12 -2 -15 2 -3 7 2 10 11 7 17 1 20 -8 4z"/>
</g>
</svg>
